<?xml version="1.0" encoding="UTF-8"?>
<svg xmlns="http://www.w3.org/2000/svg" xmlns:xlink="http://www.w3.org/1999/xlink" width="51px" height="48px" viewBox="0 0 51 48" version="1.1">
<g id="surface1">
<path style=" stroke:none;fill-rule:nonzero;fill:rgb(0%,0%,0%);fill-opacity:1;" d="M 15.695312 10.078125 C 12.265625 12.316406 9.578125 15.703125 8.0625 19.75 C 7.433594 21.417969 7.320312 22.164062 7.320312 25.121094 C 7.289062 28.476562 7.320312 28.621094 8.234375 30.515625 C 9.804688 33.675781 12.09375 34.9375 15.75 34.652344 C 20.667969 34.25 26.070312 30.257812 28.644531 25.175781 C 30.445312 21.558594 31.101562 16.449219 30.160156 13.261719 C 29.300781 10.363281 26.84375 8.640625 24.128906 9.015625 C 20.984375 9.445312 17.523438 12.316406 15.75 15.933594 C 14.78125 17.914062 14.664062 18.375 15.265625 18.375 C 16.066406 18.375 17.179688 17.109375 18.324219 14.929688 C 19.839844 11.972656 21.011719 10.910156 22.753906 10.910156 C 25.183594 10.910156 26.816406 12.402344 27.585938 15.359375 C 28.789062 20.066406 27.042969 26.296875 23.46875 29.855469 C 20.898438 32.410156 18.179688 33.386719 15.378906 32.699219 C 13.4375 32.238281 11.175781 30.085938 10.492188 27.992188 C 8.492188 22.105469 11.121094 14.441406 16.410156 10.765625 C 17.296875 10.164062 18.011719 9.503906 18.011719 9.273438 C 18.011719 8.699219 17.667969 8.8125 15.695312 10.078125 Z M 15.695312 10.078125 "/>
<path style=" stroke:none;fill-rule:nonzero;fill:rgb(0%,0%,0%);fill-opacity:1;" d="M 36.5625 22.964844 C 35.164062 23.367188 34.304688 24.171875 33.53125 25.78125 C 32.789062 27.332031 32.734375 27.644531 32.734375 31.292969 C 32.734375 34.878906 32.789062 35.28125 33.476562 36.773438 C 34.992188 40.019531 38.621094 40.792969 41.050781 38.441406 C 42.507812 37.003906 43.023438 35.195312 43.023438 31.292969 C 43.023438 27.417969 42.507812 25.578125 41.082031 24.171875 C 39.738281 22.878906 38.191406 22.449219 36.5625 22.964844 Z M 39.824219 24.285156 C 40.910156 25.378906 41.25 27.53125 41.109375 32.296875 C 40.996094 36.402344 40.824219 37.121094 39.652344 38.382812 C 38.820312 39.300781 36.933594 39.300781 35.933594 38.355469 C 34.875 37.347656 34.589844 35.941406 34.589844 31.292969 C 34.589844 26.726562 34.875 25.261719 35.878906 24.230469 C 36.878906 23.226562 38.820312 23.253906 39.824219 24.285156 Z M 39.824219 24.285156 "/>
</g>
</svg>
