<?xml version="1.0" standalone="no"?>
<!DOCTYPE svg PUBLIC "-//W3C//DTD SVG 20010904//EN"
 "http://www.w3.org/TR/2001/REC-SVG-20010904/DTD/svg10.dtd">
<svg version="1.0" xmlns="http://www.w3.org/2000/svg"
 width="178.000000pt" height="167.000000pt" viewBox="0 0 178.000000 167.000000"
 preserveAspectRatio="xMidYMid meet">

<g transform="translate(0.000000,167.000000) scale(0.100000,-0.100000)"
fill="#000000" stroke="none">
<path d="M549 1319 c-120 -78 -214 -196 -267 -337 -22 -58 -26 -84 -26 -187
-1 -117 0 -122 32 -188 55 -110 135 -154 263 -144 172 14 361 153 451 330 63
126 86 304 53 415 -30 101 -116 161 -211 148 -110 -15 -231 -115 -293 -241
-34 -69 -38 -85 -17 -85 28 0 67 44 107 120 53 103 94 140 155 140 85 0 142
-52 169 -155 42 -164 -19 -381 -144 -505 -90 -89 -185 -123 -283 -99 -68 16
-147 91 -171 164 -70 205 22 472 207 600 31 21 56 44 56 52 0 20 -12 16 -81
-28z"/>
<path d="M1279 870 c-49 -14 -79 -42 -106 -98 -26 -54 -28 -65 -28 -192 0
-125 2 -139 26 -191 53 -113 180 -140 265 -58 51 50 69 113 69 249 0 135 -18
199 -68 248 -47 45 -101 60 -158 42z m114 -46 c38 -38 50 -113 45 -279 -4
-143 -10 -168 -51 -212 -29 -32 -95 -32 -130 1 -37 35 -47 84 -47 246 0 159
10 210 45 246 35 35 103 34 138 -2z"/>
</g>
</svg>
